<?xml version="1.0" encoding="UTF-8"?>
<svg xmlns="http://www.w3.org/2000/svg" xmlns:xlink="http://www.w3.org/1999/xlink" width="50px" height="50px" viewBox="0 0 50 49" version="1.1">
<g id="surface1">
<path style=" stroke:none;fill-rule:nonzero;fill:rgb(0%,0%,0%);fill-opacity:1;" d="M 3.527344 0 L 46.425781 0 C 47.402344 0 48.277344 0.394531 48.914062 1.023438 C 49.550781 1.65625 49.953125 2.53125 49.953125 3.484375 L 49.953125 45.578125 C 49.953125 46.542969 49.550781 47.40625 48.914062 48.035156 C 48.277344 48.664062 47.386719 49.0625 46.425781 49.0625 L 3.527344 49.0625 C 2.546875 49.0625 1.675781 48.664062 1.039062 48.035156 C 0.398438 47.40625 0 46.527344 0 45.578125 L 0 3.484375 C 0 2.519531 0.398438 1.65625 1.039062 1.023438 C 1.675781 0.394531 2.5625 0 3.527344 0 Z M 3.699219 35.472656 L 18.09375 21.859375 C 18.671875 21.332031 19.574219 21.390625 20.09375 21.960938 C 20.109375 21.976562 20.109375 21.988281 20.121094 21.988281 L 32.910156 36.9375 L 34.867188 25.050781 C 35 24.289062 35.726562 23.761719 36.496094 23.894531 C 36.792969 23.9375 37.058594 24.082031 37.265625 24.273438 L 46.238281 33.585938 L 46.238281 4.328125 C 46.238281 4.136719 46.164062 3.976562 46.03125 3.859375 C 45.914062 3.742188 45.734375 3.652344 45.558594 3.652344 L 4.363281 3.652344 C 4.171875 3.652344 4.007812 3.726562 3.890625 3.859375 C 3.773438 3.976562 3.683594 4.152344 3.683594 4.328125 L 3.683594 35.472656 Z M 36.800781 7.980469 C 38.207031 7.980469 39.496094 8.550781 40.414062 9.457031 C 41.347656 10.378906 41.910156 11.640625 41.910156 13.03125 C 41.910156 14.421875 41.335938 15.695312 40.414062 16.601562 C 39.480469 17.523438 38.207031 18.082031 36.800781 18.082031 C 35.390625 18.082031 34.101562 17.511719 33.183594 16.601562 C 32.25 15.679688 31.6875 14.421875 31.6875 13.03125 C 31.6875 11.640625 32.265625 10.367188 33.183594 9.457031 C 34.117188 8.535156 35.390625 7.980469 36.800781 7.980469 Z M 36.800781 7.980469 "/>
</g>
</svg>
