<?xml version="1.0" encoding="UTF-8"?>
<svg xmlns="http://www.w3.org/2000/svg" xmlns:xlink="http://www.w3.org/1999/xlink" viewBox="0 0 30 30" version="1.1">
<g id="surface1">
<path style=" stroke:none;fill-rule:nonzero;fill:#bdbdbd;fill-opacity:1;" d="M 29.621094 27.851562 L 21.015625 19.238281 C 22.710938 17.203125 23.730469 14.601562 23.730469 11.761719 C 23.730469 5.28125 18.414062 0.0117188 11.871094 0.0117188 C 5.332031 0.0117188 0 5.289062 0 11.769531 C 0 18.246094 5.316406 23.515625 11.859375 23.515625 C 14.640625 23.515625 17.195312 22.5625 19.226562 20.972656 L 27.863281 29.609375 C 28.367188 30.113281 29.117188 30.113281 29.621094 29.609375 C 30.125 29.105469 30.125 28.355469 29.621094 27.851562 Z M 2.519531 11.769531 C 2.519531 6.675781 6.714844 2.539062 11.859375 2.539062 C 17.003906 2.539062 21.199219 6.675781 21.199219 11.769531 C 21.199219 16.859375 17.003906 20.996094 11.859375 20.996094 C 6.714844 20.996094 2.519531 16.851562 2.519531 11.769531 Z M 2.519531 11.769531 "/>
</g>
</svg>
